<?xml version="1.0" encoding="utf-8"?>
<!-- Generator: Adobe Illustrator 26.0.3, SVG Export Plug-In . SVG Version: 6.00 Build 0)  -->
<svg version="1.1" id="Layer_1" xmlns="http://www.w3.org/2000/svg" xmlns:xlink="http://www.w3.org/1999/xlink" x="0px" y="0px"
	 viewBox="0 0 103.21 118.82" style="enable-background:new 0 0 103.21 118.82;" xml:space="preserve">
<style type="text/css">
	.st0{fill:#ED1C24;stroke:#000000;stroke-width:0.5;stroke-opacity:0.8;}
</style>
<path class="st0" d="M102.04,59.41v29.12l-25.22,14.56L102.04,59.41z"/>
<path class="st0" d="M102.04,59.41l-25.22,43.68V73.97L102.04,59.41z"/>
<path class="st0" d="M102.04,59.41L76.82,73.97L51.61,59.41H102.04z"/>
<path class="st0" d="M76.82,103.09L51.61,59.41l25.22,14.56V103.09z"/>
<path class="st0" d="M1.17,59.41V30.29l25.22-14.56L1.17,59.41z"/>
<path class="st0" d="M26.39,44.85L1.17,59.41l25.22-43.68V44.85z"/>
<path class="st0" d="M1.17,59.41l25.22,43.68L1.17,88.53V59.41z"/>
<path class="st0" d="M51.61,59.41H1.17l25.22-14.56L51.61,59.41z"/>
<path class="st0" d="M51.61,59.41L26.39,44.85V15.73L51.61,59.41z"/>
<path class="st0" d="M51.61,1.17l25.22,14.56H26.39L51.61,1.17z"/>
<path class="st0" d="M1.17,59.41l25.22,14.56v29.12L1.17,59.41z"/>
<path class="st0" d="M51.61,59.41L26.39,73.97L1.17,59.41H51.61z"/>
<path class="st0" d="M51.61,59.41L26.39,15.73l25.22,14.56V59.41z"/>
<path class="st0" d="M26.39,15.73h50.44L51.61,30.29L26.39,15.73z"/>
<path class="st0" d="M76.82,103.09l-25.22,14.56l-25.22-14.56H76.82z"/>
<path class="st0" d="M51.61,59.41l-25.22,43.68V73.97L51.61,59.41z"/>
<path class="st0" d="M51.61,59.41V30.29l25.22-14.56L51.61,59.41z"/>
<path class="st0" d="M76.82,103.09H26.39l25.22-14.56L76.82,103.09z"/>
<path class="st0" d="M51.61,59.41v29.12l-25.22,14.56L51.61,59.41z"/>
<path class="st0" d="M51.61,59.41l25.22-43.68v29.12L51.61,59.41z"/>
<path class="st0" d="M102.04,59.41L76.82,44.85V15.73L102.04,59.41z"/>
<path class="st0" d="M102.04,59.41L76.82,15.73l25.22,14.56V59.41z"/>
<path class="st0" d="M76.82,103.09L51.61,88.53V59.41L76.82,103.09z"/>
<path class="st0" d="M102.04,59.41H51.61l25.22-14.56L102.04,59.41z"/>
<circle class="st0" cx="102.04" cy="59.41" r="0.92"/>
<circle class="st0" cx="102.04" cy="88.53" r="0.92"/>
<circle class="st0" cx="76.82" cy="103.09" r="0.92"/>
<circle class="st0" cx="76.82" cy="73.97" r="0.92"/>
<circle class="st0" cx="51.61" cy="59.41" r="0.92"/>
<circle class="st0" cx="102.04" cy="30.29" r="0.92"/>
<circle class="st0" cx="76.82" cy="44.85" r="0.92"/>
<circle class="st0" cx="51.61" cy="88.53" r="0.92"/>
<circle class="st0" cx="1.17" cy="30.29" r="0.92"/>
<circle class="st0" cx="1.17" cy="88.53" r="0.92"/>
<circle class="st0" cx="26.39" cy="44.85" r="0.92"/>
<circle class="st0" cx="51.61" cy="1.17" r="0.92"/>
<circle class="st0" cx="1.17" cy="59.41" r="0.92"/>
<circle class="st0" cx="26.39" cy="15.73" r="0.92"/>
<circle class="st0" cx="51.61" cy="117.65" r="0.92"/>
<circle class="st0" cx="26.39" cy="73.97" r="0.92"/>
<circle class="st0" cx="51.61" cy="30.29" r="0.92"/>
<circle class="st0" cx="26.39" cy="103.09" r="0.92"/>
<circle class="st0" cx="76.82" cy="15.73" r="0.92"/>
</svg>
